<?xml version="1.0" encoding="UTF-8" standalone="no"?>
<!-- Created with Inkscape (http://www.inkscape.org/) -->

<svg
   version="1.1"
   id="svg1"
   width="860"
   height="233.31088"
   viewBox="0 0 860 233.31088"
   xmlns="http://www.w3.org/2000/svg"
   xmlns:svg="http://www.w3.org/2000/svg">
  <defs
     id="defs1" />
  <g
     id="layer1"
     style="display:inline"
     transform="translate(-332.71906,-340.34683)">
    <path
       style="font-weight:bold;font-size:106.667px;font-family:'DM Sans';-inkscape-font-specification:'DM Sans Bold';letter-spacing:-3.05px;fill:#1a2b45;fill-opacity:1;stroke:#1a2b45;stroke-width:6.4239;stroke-dasharray:none;stroke-opacity:1"
       d="m 601.27725,453.56583 c -5.86243,0 -10.9635,-1.06589 -15.30321,-3.19768 -4.33972,-2.13179 -7.68968,-5.10107 -10.04988,-8.90784 -2.3602,-3.80677 -3.5403,-8.22263 -3.5403,-13.24756 h 10.04988 c 0,3.12155 0.72328,6.0147 2.16985,8.67943 1.44658,2.58861 3.54031,4.68233 6.28118,6.28118 2.81701,1.52271 6.28117,2.28406 10.39248,2.28406 3.57835,0 6.62377,-0.57102 9.13625,-1.71305 2.58859,-1.21817 4.53004,-2.85508 5.82434,-4.91073 1.37044,-2.05566 2.05566,-4.37779 2.05566,-6.96639 0,-2.89315 -0.64715,-5.29141 -1.94145,-7.19479 -1.21817,-1.97952 -2.93122,-3.57836 -5.13915,-4.79653 -2.20791,-1.2943 -4.75844,-2.43633 -7.65159,-3.42609 -2.89315,-0.98976 -6.0147,-2.01759 -9.36466,-3.08348 -6.69991,-2.1318 -11.57257,-4.79654 -14.61798,-7.99422 -2.96928,-3.27382 -4.45392,-7.46126 -4.45392,-12.56233 0,-4.33972 0.98976,-8.14649 2.96927,-11.42031 2.05566,-3.27382 4.94881,-5.82436 8.67944,-7.65161 3.80677,-1.90339 8.29875,-2.85508 13.47595,-2.85508 5.10108,0 9.51693,0.95169 13.24756,2.85508 3.80677,1.90339 6.77605,4.53006 8.90784,7.88001 2.13179,3.27382 3.19769,7.08059 3.19769,11.42031 h -10.04987 c 0,-2.20792 -0.57102,-4.37778 -1.71305,-6.50958 -1.14203,-2.13179 -2.89314,-3.8829 -5.25334,-5.25333 -2.28407,-1.44657 -5.17721,-2.16986 -8.67943,-2.16986 -2.89315,-0.0761 -5.48175,0.41875 -7.7658,1.48464 -2.20793,0.98975 -3.95905,2.43633 -5.25336,4.33972 -1.21816,1.90338 -1.82724,4.2255 -1.82724,6.96637 0,2.58861 0.53295,4.68233 1.59884,6.28118 1.14203,1.59883 2.74088,2.96927 4.79653,4.11131 2.13179,1.06589 4.60619,2.05565 7.4232,2.96927 2.81701,0.91363 5.93856,1.94146 9.36465,3.08349 3.88291,1.2943 7.309,2.89314 10.27827,4.79653 3.04542,1.82725 5.40562,4.18744 7.0806,7.08059 1.75111,2.89314 2.62667,6.58571 2.62667,11.0777 0,3.80677 -1.02783,7.42319 -3.08348,10.84928 -1.97952,3.34996 -4.9488,6.09084 -8.90785,8.22263 -3.95903,2.13179 -8.9459,3.19768 -14.96059,3.19768 z m 49.83877,-1.37043 -17.70148,-60.07082 h 9.59307 l 13.13334,47.85109 v 0 l 13.93278,-47.85109 h 10.84929 l 14.04697,47.73689 v 0 l 13.01915,-47.73689 h 9.70727 l -17.70149,60.07082 h -9.82146 l -14.61799,-50.02094 v 0 l -14.61799,50.02094 z m 97.00449,1.37043 c -5.32948,0 -10.04987,-1.2943 -14.16118,-3.8829 -4.11131,-2.58861 -7.34707,-6.2431 -9.70727,-10.96349 -2.28405,-4.72039 -3.42608,-10.24021 -3.42608,-16.55945 0,-6.31923 1.14203,-11.83905 3.42608,-16.55944 2.3602,-4.72039 5.59596,-8.37489 9.70727,-10.96349 4.18744,-2.58861 8.98397,-3.88292 14.38958,-3.88292 5.78629,0 10.62088,1.29431 14.50379,3.88292 3.88291,2.5886 6.81412,6.05276 8.79364,10.39247 1.97952,4.33972 2.96928,9.09818 2.96928,14.27538 v 2.28407 c 0,0.76135 -0.0381,1.67498 -0.11421,2.74087 h -46.48065 v -7.42319 h 37.23021 c -0.15227,-5.86243 -1.86532,-10.31635 -5.13914,-13.36176 -3.19769,-3.12155 -7.19479,-4.68233 -11.99132,-4.68233 -3.19769,0 -6.16697,0.79942 -8.90784,2.39826 -2.66475,1.52271 -4.83461,3.80678 -6.50958,6.85219 -1.67497,3.04541 -2.51246,6.85218 -2.51246,11.4203 v 3.19769 c 0,5.02493 0.83749,9.25045 2.51246,12.67654 1.67497,3.34995 3.84483,5.86242 6.50958,7.5374 2.74087,1.67498 5.71015,2.51247 8.90784,2.51247 4.26358,0 7.61353,-0.79942 10.04986,-2.39827 2.43634,-1.67498 4.22552,-4.03518 5.36755,-7.0806 h 9.47885 c -0.91362,3.34997 -2.51246,6.35732 -4.79653,9.02206 -2.20793,2.66473 -5.02494,4.75845 -8.45103,6.28116 -3.34995,1.52271 -7.23285,2.28406 -11.6487,2.28406 z m 61.37343,0 c -5.32947,0 -10.04986,-1.2943 -14.16117,-3.8829 -4.11131,-2.58861 -7.34706,-6.2431 -9.70726,-10.96349 -2.28406,-4.72039 -3.42609,-10.24021 -3.42609,-16.55945 0,-6.31923 1.14203,-11.83905 3.42609,-16.55944 2.3602,-4.72039 5.59595,-8.37489 9.70726,-10.96349 4.18745,-2.58861 8.98397,-3.88292 14.38958,-3.88292 5.78629,0 10.62089,1.29431 14.5038,3.88292 3.8829,2.5886 6.81411,6.05276 8.79362,10.39247 1.97953,4.33972 2.96929,9.09818 2.96929,14.27538 v 2.28407 c 0,0.76135 -0.0381,1.67498 -0.1142,2.74087 h -46.48065 v -7.42319 h 37.23019 c -0.15227,-5.86243 -1.86531,-10.31635 -5.13913,-13.36176 -3.19769,-3.12155 -7.1948,-4.68233 -11.99133,-4.68233 -3.19768,0 -6.16696,0.79942 -8.90783,2.39826 -2.66473,1.52271 -4.83459,3.80678 -6.50957,6.85219 -1.67498,3.04541 -2.51247,6.85218 -2.51247,11.4203 v 3.19769 c 0,5.02493 0.83749,9.25045 2.51247,12.67654 1.67498,3.34995 3.84484,5.86242 6.50957,7.5374 2.74087,1.67498 5.71015,2.51247 8.90783,2.51247 4.26358,0 7.61354,-0.79942 10.04987,-2.39827 2.43633,-1.67498 4.22552,-4.03518 5.36756,-7.0806 h 9.47885 c -0.91363,3.34997 -2.51248,6.35732 -4.79653,9.02206 -2.20793,2.66473 -5.02493,4.75845 -8.45102,6.28116 -3.34996,1.52271 -7.23287,2.28406 -11.64873,2.28406 z m 57.83315,-1.37043 c -3.4261,0 -6.39538,-0.53295 -8.90785,-1.59885 -2.51247,-1.06589 -4.45392,-2.85507 -5.82436,-5.36754 -1.2943,-2.58861 -1.94145,-6.05277 -1.94145,-10.39249 V 400.233 h -10.50668 v -8.10842 h 10.50668 l 1.25624,-14.9606 h 8.33682 v 14.9606 h 17.01626 v 8.10842 h -17.01626 v 34.60352 c 0,3.57837 0.72329,6.0147 2.16987,7.309 1.44657,1.21817 3.9971,1.82725 7.65159,1.82725 h 6.96638 v 8.22263 z m 57.52508,1.37043 c -5.86243,0 -10.9635,-1.06589 -15.30322,-3.19768 -4.33971,-2.13179 -7.68967,-5.10107 -10.04987,-8.90784 -2.36019,-3.80677 -3.54029,-8.22263 -3.54029,-13.24756 h 10.04986 c 0,3.12155 0.72329,6.0147 2.16986,8.67943 1.44658,2.58861 3.5403,4.68233 6.28117,6.28118 2.81701,1.52271 6.28118,2.28406 10.39249,2.28406 3.57836,0 6.62377,-0.57102 9.13622,-1.71305 2.58861,-1.21817 4.53004,-2.85508 5.82431,-4.91073 1.37047,-2.05566 2.0557,-4.37779 2.0557,-6.96639 0,-2.89315 -0.64713,-5.29141 -1.9414,-7.19479 -1.2182,-1.97952 -2.93125,-3.57836 -5.13916,-4.79653 -2.20793,-1.2943 -4.75846,-2.43633 -7.65161,-3.42609 -2.89315,-0.98976 -6.01471,-2.01759 -9.36466,-3.08348 -6.69991,-2.1318 -11.57257,-4.79654 -14.61799,-7.99422 -2.96929,-3.27382 -4.45393,-7.46126 -4.45393,-12.56233 0,-4.33972 0.98977,-8.14649 2.9693,-11.42031 2.05564,-3.27382 4.94878,-5.82436 8.67943,-7.65161 3.80677,-1.90339 8.29875,-2.85508 13.47595,-2.85508 5.10108,0 9.51692,0.95169 13.24751,2.85508 3.80677,1.90339 6.77606,4.53006 8.90786,7.88001 2.1318,3.27382 3.1977,7.08059 3.1977,11.42031 h -10.0499 c 0,-2.20792 -0.57099,-4.37778 -1.71296,-6.50958 -1.14205,-2.13179 -2.89319,-3.8829 -5.2534,-5.25333 -2.28405,-1.44657 -5.17719,-2.16986 -8.67942,-2.16986 -2.89314,-0.0761 -5.48174,0.41875 -7.7658,1.48464 -2.20793,0.98975 -3.95904,2.43633 -5.25335,4.33972 -1.21816,1.90338 -1.82724,4.2255 -1.82724,6.96637 0,2.58861 0.53295,4.68233 1.59884,6.28118 1.14203,1.59883 2.74088,2.96927 4.79653,4.11131 2.13179,1.06589 4.60619,2.05565 7.4232,2.96927 2.81701,0.91363 5.93856,1.94146 9.36465,3.08349 3.88288,1.2943 7.30896,2.89314 10.27825,4.79653 3.0454,1.82725 5.4056,4.18744 7.0806,7.08059 1.75107,2.89314 2.6266,6.58571 2.6266,11.0777 0,3.80677 -1.0278,7.42319 -3.0834,10.84928 -1.97953,3.34996 -4.94883,6.09084 -8.9079,8.22263 -3.95899,2.13179 -8.94583,3.19768 -14.96053,3.19768 z m 37.39063,23.75424 v -85.19549 h 8.6794 l 0.7994,9.36465 v 0 c 0,0 2.7409,-3.76869 4.5681,-5.36754 1.90347,-1.59884 4.1495,-2.89314 6.7381,-3.8829 2.66467,-0.98977 5.71007,-1.48465 9.1362,-1.48465 5.4056,0 10.126,1.37044 14.1612,4.11132 4.1113,2.74087 7.3089,6.47151 9.5929,11.1919 2.2841,4.72039 3.4262,10.126 3.4262,16.21683 0,6.0147 -1.1421,11.38224 -3.4262,16.10263 -2.284,4.7204 -5.4816,8.45104 -9.5929,11.19191 -4.1113,2.66473 -8.8698,3.9971 -14.2754,3.9971 -4.64427,0 -8.71753,-0.95169 -12.2198,-2.85508 -3.50213,-1.90338 -6.16683,-4.56811 -7.9941,-7.9942 v 34.60352 z m 28.665,-32.09106 c 3.57833,0 6.73793,-0.91363 9.4788,-2.74088 2.817,-1.90338 5.0249,-4.56812 6.6237,-7.99421 1.6751,-3.50223 2.5126,-7.61354 2.5126,-12.33393 0,-4.7204 -0.8375,-8.79364 -2.5126,-12.21973 -1.5988,-3.50222 -3.8067,-6.16695 -6.6237,-7.9942 -2.74087,-1.90339 -5.90047,-2.85509 -9.4788,-2.85509 -3.8068,0 -7.1187,0.9517 -9.9357,2.85509 -2.817,1.82725 -4.98687,4.49198 -6.5096,7.9942 -1.52267,3.42609 -2.284,7.49933 -2.284,12.21973 0,4.72039 0.76133,8.8317 2.284,12.33393 1.52273,3.42609 3.6926,6.09083 6.5096,7.99421 2.817,1.82725 6.1289,2.74088 9.9357,2.74088 z m 64.9136,8.33682 c -5.5579,0 -10.4687,-1.2943 -14.7322,-3.8829 -4.2635,-2.58861 -7.5754,-6.2431 -9.9357,-10.96349 -2.3601,-4.72039 -3.5402,-10.24021 -3.5402,-16.55945 0,-6.39537 1.1801,-11.91519 3.5402,-16.55944 2.4363,-4.72039 5.7863,-8.37489 10.0499,-10.96349 4.3398,-2.58861 9.2886,-3.88292 14.8464,-3.88292 5.6341,0 10.5448,1.29431 14.7322,3.88292 4.2636,2.5886 7.5755,6.2431 9.9357,10.96349 2.3602,4.64425 3.5403,10.16407 3.5403,16.55944 0,6.31924 -1.2182,11.83906 -3.6545,16.55945 -2.3602,4.72039 -5.6721,8.37488 -9.9357,10.96349 -4.2636,2.5886 -9.2124,3.8829 -14.8464,3.8829 z m 0,-8.22262 c 3.5023,0 6.6619,-0.83749 9.4789,-2.51247 2.817,-1.75111 5.0249,-4.33971 6.6238,-7.7658 1.6749,-3.50223 2.5124,-7.80388 2.5124,-12.90495 0,-5.17721 -0.7994,-9.47885 -2.3982,-12.90494 -1.5989,-3.4261 -3.8068,-5.97664 -6.6238,-7.65161 -2.7409,-1.75111 -5.8625,-2.62667 -9.3647,-2.62667 -3.4261,0 -6.5477,0.87556 -9.3646,2.62667 -2.817,1.67497 -5.063,4.22551 -6.7381,7.65161 -1.6749,3.42609 -2.5124,7.72773 -2.5124,12.90494 0,5.10107 0.7994,9.40272 2.3983,12.90495 1.6749,3.42609 3.8829,6.01469 6.6238,7.7658 2.817,1.67498 5.9385,2.51247 9.3646,2.51247 z m 60.117,6.85219 c -3.4261,0 -6.3954,-0.53295 -8.9079,-1.59885 -2.5125,-1.06589 -4.4539,-2.85507 -5.8243,-5.36754 -1.2943,-2.58861 -1.9414,-6.05277 -1.9414,-10.39249 V 400.233 h -10.5068 v -8.10842 h 10.5068 l 1.2561,-14.9606 h 8.3369 v 14.9606 h 17.0163 v 8.10842 h -17.0163 v 34.60352 c 0,3.57837 0.7233,6.0147 2.1699,7.309 1.4465,1.21817 3.997,1.82725 7.6516,1.82725 h 6.9663 v 8.22263 z"
       id="text1"
       aria-label="Sweet Spot" />
    <text
       xml:space="preserve"
       style="font-style:normal;font-variant:normal;font-weight:normal;font-stretch:normal;font-size:66.5059px;font-family:'DM Sans';-inkscape-font-specification:'DM Sans';letter-spacing:18.5222px;writing-mode:lr-tb;direction:ltr;opacity:1;fill:#7a8ba8;fill-opacity:1;stroke:none;stroke-width:0;stroke-dasharray:none"
       x="441.43408"
       y="673.95013"
       id="text2"
       transform="scale(1.2878858,0.77646637)"><tspan
         id="tspan2"
         x="441.43408"
         y="673.95013"
         style="font-style:normal;font-variant:normal;font-weight:200;font-stretch:normal;font-size:66.5059px;font-family:'DM Sans';-inkscape-font-specification:'DM Sans Ultra-Light';letter-spacing:18.5222px;fill:#7a8ba8;fill-opacity:1;stroke:none;stroke-width:0;stroke-dasharray:none">ADVISORY</tspan></text>
  </g>
  <g
     id="layer6"
     transform="translate(-332.71906,-340.34683)">
    <g
       id="g15-1"
       transform="matrix(0.32193689,0,0,0.30940281,185.66118,291.55847)">
      <path
         id="path5-0"
         style="fill:#1a2b45;fill-opacity:1;stroke:none;stroke-width:6;stroke-dasharray:none;stroke-opacity:1"
         d="M 801.50586,-157.68555 A 344.71454,344.71454 0 0 1 456.79102,-502.39844 344.71454,344.71454 0 0 1 562.33984,-750.16797 c 104.97731,25.14724 184.98495,137.06999 176.375,185.94141 a 88.120728,88.120728 0 0 0 -25.33007,61.82812 88.120728,88.120728 0 0 0 6.39843,32.96289 c 15.61159,39.98804 123.14004,226.68151 320.5313,215.1211 a 344.71454,344.71454 0 0 1 -238.80864,96.6289 z m 238.93944,-96.74609 C 935.26631,-279.83443 855.24569,-392.25475 864.51172,-440.79297 a 88.120728,88.120728 0 0 0 25.11523,-61.60547 88.120728,88.120728 0 0 0 -6.27734,-32.66601 88.120728,88.120728 0 0 0 -5.07031,-10.57813 C 852.87986,-599.08386 747.73126,-761.3292 562.35742,-750.18359 a 344.71454,344.71454 0 0 1 239.14844,-96.92969 344.71454,344.71454 0 0 1 344.71484,344.71484 344.71454,344.71454 0 0 1 -105.7754,247.9668 z"
         transform="scale(1,-1)" />
      <circle
         style="fill:#f59c29;fill-opacity:1;stroke:none;stroke-width:5.6215;stroke-dasharray:none;stroke-opacity:1"
         id="path6-0-6"
         cx="801.50586"
         cy="502.39941"
         r="93.412209" />
      <path
         style="opacity:0.723724;fill:#f1efe8;fill-opacity:1;stroke:none;stroke-width:2;stroke-dasharray:none;stroke-opacity:1"
         d="M 731.97981,448.06467 864.51247,440.7926"
         id="path14-1" />
    </g>
    <ellipse
       style="display:none;opacity:1;fill:#f1efe8;fill-opacity:1;stroke:#f59c29;stroke-width:0.772771;stroke-dasharray:none;stroke-opacity:1"
       id="path15"
       cx="801.50586"
       cy="502.39941"
       rx="37.537796"
       ry="36.537796" />
  </g>
</svg>
