<?xml version="1.0" encoding="UTF-8" standalone="no"?>
<!-- Created with Inkscape (http://www.inkscape.org/) -->

<svg
   version="1.1"
   id="svg1"
   width="860"
   height="233.31085"
   viewBox="0 0 860 233.31085"
   xmlns="http://www.w3.org/2000/svg"
   xmlns:svg="http://www.w3.org/2000/svg">
  <defs
     id="defs1" />
  <g
     id="layer1"
     style="display:inline"
     transform="translate(-338.47321,-694.50001)">
    <rect
       style="display:none;opacity:1;fill:#1a2b45;fill-opacity:1;stroke:none;stroke-width:0;stroke-dasharray:none;stroke-opacity:1"
       id="rect15"
       width="1019.5"
       height="394.5"
       x="267"
       y="613.5"
       rx="5"
       ry="5" />
  </g>
  <g
     id="layer6"
     transform="translate(-338.47321,-694.50001)">
    <path
       style="font-weight:bold;font-size:106.667px;font-family:'DM Sans';-inkscape-font-specification:'DM Sans Bold';letter-spacing:-3.05px;display:inline;fill:#ffffff;fill-opacity:1;stroke:#ffffff;stroke-width:6.4239;stroke-dasharray:none;stroke-opacity:1"
       d="m 607.03139,807.71901 c -5.86247,0 -10.96353,-1.06589 -15.3032,-3.19768 -4.33973,-2.13179 -7.6897,-5.10107 -10.0499,-8.90784 -2.3602,-3.80677 -3.5403,-8.22263 -3.5403,-13.24756 h 10.0499 c 0,3.12155 0.72327,6.0147 2.1698,8.67943 1.4466,2.58861 3.54033,4.68233 6.2812,6.28118 2.817,1.52271 6.28117,2.28406 10.3925,2.28406 3.57833,0 6.62373,-0.57102 9.1362,-1.71305 2.5886,-1.21817 4.53007,-2.85508 5.8244,-4.91073 1.3704,-2.05566 2.0556,-4.37779 2.0556,-6.96639 0,-2.89315 -0.64713,-5.29141 -1.9414,-7.19479 -1.2182,-1.97952 -2.93127,-3.57836 -5.1392,-4.79653 -2.20787,-1.2943 -4.7584,-2.43633 -7.6516,-3.42609 -2.89313,-0.98976 -6.01467,-2.01759 -9.3646,-3.08348 -6.69993,-2.1318 -11.5726,-4.79654 -14.618,-7.99422 -2.96927,-3.27382 -4.4539,-7.46126 -4.4539,-12.56233 0,-4.33972 0.98977,-8.14649 2.9693,-11.42031 2.0556,-3.27382 4.94873,-5.82436 8.6794,-7.65161 3.80673,-1.90339 8.29873,-2.85508 13.476,-2.85508 5.10107,0 9.5169,0.95169 13.2475,2.85508 3.8068,1.90339 6.77607,4.53006 8.9078,7.88001 2.1318,3.27382 3.1977,7.08059 3.1977,11.42031 h -10.0498 c 0,-2.20792 -0.57103,-4.37778 -1.7131,-6.50958 -1.142,-2.13179 -2.8931,-3.8829 -5.2533,-5.25333 -2.28407,-1.44657 -5.17723,-2.16986 -8.6795,-2.16986 -2.89313,-0.0761 -5.4817,0.41875 -7.7657,1.48464 -2.208,0.98975 -3.95913,2.43633 -5.2534,4.33972 -1.2182,1.90338 -1.8273,4.2255 -1.8273,6.96637 0,2.58861 0.53297,4.68233 1.5989,6.28118 1.142,1.59883 2.74083,2.96927 4.7965,4.11131 2.1318,1.06589 4.6062,2.05565 7.4232,2.96927 2.817,0.91363 5.93857,1.94146 9.3647,3.08349 3.88287,1.2943 7.30893,2.89314 10.2782,4.79653 3.04547,1.82725 5.40567,4.18744 7.0806,7.08059 1.75113,2.89314 2.6267,6.58571 2.6267,11.0777 0,3.80677 -1.02783,7.42319 -3.0835,10.84928 -1.97953,3.34996 -4.9488,6.09084 -8.9078,8.22263 -3.95907,2.13179 -8.94593,3.19768 -14.9606,3.19768 z m 49.8388,-1.37043 -17.7015,-60.07082 h 9.5931 l 13.1333,47.85109 v 0 l 13.9328,-47.85109 h 10.8493 l 14.0469,47.73689 v 0 l 13.0192,-47.73689 h 9.7072 l -17.7014,60.07082 h -9.8215 l -14.618,-50.02094 v 0 l -14.618,50.02094 z m 97.0044,1.37043 c -5.32947,0 -10.04983,-1.2943 -14.1611,-3.8829 -4.11133,-2.58861 -7.3471,-6.2431 -9.7073,-10.96349 -2.28407,-4.72039 -3.4261,-10.24021 -3.4261,-16.55945 0,-6.31923 1.14203,-11.83905 3.4261,-16.55944 2.3602,-4.72039 5.59597,-8.37489 9.7073,-10.96349 4.1874,-2.58861 8.98393,-3.88292 14.3896,-3.88292 5.78627,0 10.62083,1.29431 14.5037,3.88292 3.88293,2.5886 6.81417,6.05276 8.7937,10.39247 1.97953,4.33972 2.9693,9.09818 2.9693,14.27538 v 2.28407 c 0,0.76135 -0.0381,1.67498 -0.1142,2.74087 h -46.4807 v -7.42319 h 37.2302 c -0.15227,-5.86243 -1.8653,-10.31635 -5.1391,-13.36176 -3.19773,-3.12155 -7.19483,-4.68233 -11.9913,-4.68233 -3.19773,0 -6.16703,0.79942 -8.9079,2.39826 -2.66473,1.52271 -4.8346,3.80678 -6.5096,6.85219 -1.67493,3.04541 -2.5124,6.85218 -2.5124,11.4203 v 3.19769 c 0,5.02493 0.83747,9.25045 2.5124,12.67654 1.675,3.34995 3.84487,5.86242 6.5096,7.5374 2.74087,1.67498 5.71017,2.51247 8.9079,2.51247 4.26353,0 7.61347,-0.79942 10.0498,-2.39827 2.43633,-1.67498 4.22553,-4.03518 5.3676,-7.0806 h 9.4788 c -0.9136,3.34997 -2.51243,6.35732 -4.7965,9.02206 -2.20793,2.66473 -5.02493,4.75845 -8.451,6.28116 -3.35,1.52271 -7.23293,2.28406 -11.6488,2.28406 z m 61.3735,0 c -5.32947,0 -10.04987,-1.2943 -14.1612,-3.8829 -4.11127,-2.58861 -7.347,-6.2431 -9.7072,-10.96349 -2.28407,-4.72039 -3.4261,-10.24021 -3.4261,-16.55945 0,-6.31923 1.14203,-11.83905 3.4261,-16.55944 2.3602,-4.72039 5.59593,-8.37489 9.7072,-10.96349 4.18747,-2.58861 8.984,-3.88292 14.3896,-3.88292 5.78627,0 10.62087,1.29431 14.5038,3.88292 3.88287,2.5886 6.81407,6.05276 8.7936,10.39247 1.97953,4.33972 2.9693,9.09818 2.9693,14.27538 v 2.28407 c 0,0.76135 -0.0381,1.67498 -0.1142,2.74087 h -46.4806 v -7.42319 h 37.2301 c -0.15227,-5.86243 -1.8653,-10.31635 -5.1391,-13.36176 -3.19767,-3.12155 -7.19477,-4.68233 -11.9913,-4.68233 -3.19767,0 -6.16693,0.79942 -8.9078,2.39826 -2.66473,1.52271 -4.8346,3.80678 -6.5096,6.85219 -1.675,3.04541 -2.5125,6.85218 -2.5125,11.4203 v 3.19769 c 0,5.02493 0.8375,9.25045 2.5125,12.67654 1.675,3.34995 3.84487,5.86242 6.5096,7.5374 2.74087,1.67498 5.71013,2.51247 8.9078,2.51247 4.2636,0 7.61357,-0.79942 10.0499,-2.39827 2.43633,-1.67498 4.2255,-4.03518 5.3675,-7.0806 h 9.4789 c -0.91367,3.34997 -2.51253,6.35732 -4.7966,9.02206 -2.20793,2.66473 -5.02493,4.75845 -8.451,6.28116 -3.34993,1.52271 -7.23283,2.28406 -11.6487,2.28406 z m 57.8331,-1.37043 c -3.42607,0 -6.39533,-0.53295 -8.9078,-1.59885 -2.51247,-1.06589 -4.45393,-2.85507 -5.8244,-5.36754 -1.29427,-2.58861 -1.9414,-6.05277 -1.9414,-10.39249 v -34.60352 h -10.5067 v -8.10842 h 10.5067 l 1.2562,-14.9606 h 8.3368 v 14.9606 h 17.0163 v 8.10842 h -17.0163 v 34.60352 c 0,3.57837 0.7233,6.0147 2.1699,7.309 1.4466,1.21817 3.99713,1.82725 7.6516,1.82725 h 6.9664 v 8.22263 z m 61.5251,1.37043 c -5.8624,0 -10.96347,-1.06589 -15.3032,-3.19768 -4.33973,-2.13179 -7.6897,-5.10107 -10.0499,-8.90784 -2.3602,-3.80677 -3.5403,-8.22263 -3.5403,-13.24756 h 10.0499 c 0,3.12155 0.72327,6.0147 2.1698,8.67943 1.4466,2.58861 3.54033,4.68233 6.2812,6.28118 2.817,1.52271 6.28117,2.28406 10.3925,2.28406 3.57833,0 6.62373,-0.57102 9.1362,-1.71305 2.5886,-1.21817 4.53003,-2.85508 5.8243,-4.91073 1.37047,-2.05566 2.0557,-4.37779 2.0557,-6.96639 0,-2.89315 -0.64713,-5.29141 -1.9414,-7.19479 -1.2182,-1.97952 -2.93123,-3.57836 -5.1391,-4.79653 -2.20793,-1.2943 -4.75847,-2.43633 -7.6516,-3.42609 -2.8932,-0.98976 -6.01477,-2.01759 -9.3647,-3.08348 -6.69987,-2.1318 -11.57253,-4.79654 -14.618,-7.99422 -2.96927,-3.27382 -4.4539,-7.46126 -4.4539,-12.56233 0,-4.33972 0.98977,-8.14649 2.9693,-11.42031 2.0556,-3.27382 4.94873,-5.82436 8.6794,-7.65161 3.8068,-1.90339 8.2988,-2.85508 13.476,-2.85508 5.10107,0 9.5169,0.95169 13.2475,2.85508 3.80673,1.90339 6.776,4.53006 8.9078,7.88001 2.1318,3.27382 3.1977,7.08059 3.1977,11.42031 h -10.0499 c 0,-2.20792 -0.57097,-4.37778 -1.7129,-6.50958 -1.14207,-2.13179 -2.8932,-3.8829 -5.2534,-5.25333 -2.28407,-1.44657 -5.1772,-2.16986 -8.6794,-2.16986 -2.89313,-0.0761 -5.48173,0.41875 -7.7658,1.48464 -2.20793,0.98975 -3.95907,2.43633 -5.2534,4.33972 -1.21813,1.90338 -1.8272,4.2255 -1.8272,6.96637 0,2.58861 0.53293,4.68233 1.5988,6.28118 1.14207,1.59883 2.7409,2.96927 4.7965,4.11131 2.1318,1.06589 4.6062,2.05565 7.4232,2.96927 2.817,0.91363 5.93857,1.94146 9.3647,3.08349 3.88287,1.2943 7.30893,2.89314 10.2782,4.79653 3.0454,1.82725 5.4056,4.18744 7.0806,7.08059 1.75107,2.89314 2.6266,6.58571 2.6266,11.0777 0,3.80677 -1.0278,7.42319 -3.0834,10.84928 -1.97953,3.34996 -4.94883,6.09084 -8.9079,8.22263 -3.95893,2.13179 -8.94577,3.19768 -14.9605,3.19768 z m 37.3906,23.75424 v -85.19549 h 8.6794 l 0.7994,9.36465 v 0 c 0,0 2.7409,-3.76869 4.5681,-5.36754 1.90347,-1.59884 4.14951,-2.89314 6.73811,-3.8829 2.66467,-0.98977 5.71007,-1.48465 9.1362,-1.48465 5.4056,0 10.126,1.37044 14.1612,4.11132 4.1113,2.74087 7.3089,6.47151 9.5929,11.1919 2.2841,4.72039 3.4262,10.126 3.4262,16.21683 0,6.0147 -1.1421,11.38224 -3.4262,16.10263 -2.284,4.7204 -5.4816,8.45104 -9.5929,11.19191 -4.1113,2.66473 -8.8698,3.9971 -14.2754,3.9971 -4.64427,0 -8.71753,-0.95169 -12.2198,-2.85508 -3.50214,-1.90338 -6.16684,-4.56811 -7.99411,-7.9942 v 34.60352 z m 28.66501,-32.09106 c 3.5783,0 6.7379,-0.91363 9.4788,-2.74088 2.817,-1.90338 5.0249,-4.56812 6.6237,-7.99421 1.6751,-3.50223 2.5126,-7.61354 2.5126,-12.33393 0,-4.7204 -0.8375,-8.79364 -2.5126,-12.21973 -1.5988,-3.50222 -3.8067,-6.16695 -6.6237,-7.9942 -2.7409,-1.90339 -5.9005,-2.85509 -9.4788,-2.85509 -3.8068,0 -7.1187,0.9517 -9.9357,2.85509 -2.81701,1.82725 -4.98688,4.49198 -6.50961,7.9942 -1.52267,3.42609 -2.284,7.49933 -2.284,12.21973 0,4.72039 0.76133,8.8317 2.284,12.33393 1.52273,3.42609 3.6926,6.09083 6.50961,7.99421 2.817,1.82725 6.1289,2.74088 9.9357,2.74088 z m 64.9136,8.33682 c -5.5579,0 -10.4687,-1.2943 -14.7322,-3.8829 -4.2635,-2.58861 -7.5754,-6.2431 -9.9357,-10.96349 -2.3601,-4.72039 -3.5402,-10.24021 -3.5402,-16.55945 0,-6.39537 1.1801,-11.91519 3.5402,-16.55944 2.4363,-4.72039 5.7863,-8.37489 10.0499,-10.96349 4.3398,-2.58861 9.2886,-3.88292 14.8464,-3.88292 5.6341,0 10.5448,1.29431 14.7322,3.88292 4.2636,2.5886 7.5755,6.2431 9.9357,10.96349 2.3602,4.64425 3.5403,10.16407 3.5403,16.55944 0,6.31924 -1.2182,11.83906 -3.6545,16.55945 -2.3602,4.72039 -5.6721,8.37488 -9.9357,10.96349 -4.2636,2.5886 -9.2124,3.8829 -14.8464,3.8829 z m 0,-8.22262 c 3.5023,0 6.6619,-0.83749 9.4789,-2.51247 2.817,-1.75111 5.0249,-4.33971 6.6238,-7.7658 1.6749,-3.50223 2.5124,-7.80388 2.5124,-12.90495 0,-5.17721 -0.7994,-9.47885 -2.3982,-12.90494 -1.5989,-3.4261 -3.8068,-5.97664 -6.6238,-7.65161 -2.7409,-1.75111 -5.8625,-2.62667 -9.3647,-2.62667 -3.4261,0 -6.5477,0.87556 -9.3646,2.62667 -2.817,1.67497 -5.063,4.22551 -6.7381,7.65161 -1.6749,3.42609 -2.5124,7.72773 -2.5124,12.90494 0,5.10107 0.7994,9.40272 2.3983,12.90495 1.6749,3.42609 3.8829,6.01469 6.6238,7.7658 2.817,1.67498 5.9385,2.51247 9.3646,2.51247 z m 60.117,6.85219 c -3.4261,0 -6.3954,-0.53295 -8.9079,-1.59885 -2.5125,-1.06589 -4.4539,-2.85507 -5.8243,-5.36754 -1.2943,-2.58861 -1.9414,-6.05277 -1.9414,-10.39249 v -34.60352 h -10.5068 v -8.10842 h 10.5068 l 1.2561,-14.9606 h 8.3369 v 14.9606 h 17.0163 v 8.10842 h -17.0163 v 34.60352 c 0,3.57837 0.7233,6.0147 2.1699,7.309 1.4465,1.21817 3.997,1.82725 7.6516,1.82725 h 6.9663 v 8.22263 z"
       id="text1-0"
       aria-label="Sweet Spot" />
    <text
       xml:space="preserve"
       style="font-style:normal;font-variant:normal;font-weight:normal;font-stretch:normal;font-size:66.5059px;font-family:'DM Sans';-inkscape-font-specification:'DM Sans';letter-spacing:18.5222px;writing-mode:lr-tb;direction:ltr;display:inline;fill:#ffffff;fill-opacity:1;stroke:#ffffff;stroke-width:0;stroke-dasharray:none;stroke-opacity:1"
       x="444.34909"
       y="1132.635"
       id="text2-9"
       transform="scale(1.2878858,0.77646637)"><tspan
         id="tspan2-1"
         x="444.34909"
         y="1132.635"
         style="font-style:normal;font-variant:normal;font-weight:200;font-stretch:normal;font-size:66.5059px;font-family:'DM Sans';-inkscape-font-specification:'DM Sans Ultra-Light';letter-spacing:18.5222px;fill:#ffffff;fill-opacity:1;stroke:#ffffff;stroke-width:0;stroke-dasharray:none;stroke-opacity:1">ADVISORY</tspan></text>
    <g
       id="g15-1-7"
       transform="matrix(0.32193689,0,0,0.30940281,191.41531,645.71165)"
       style="fill:#7a8ba8;fill-opacity:1">
      <path
         id="path5-0-1"
         style="fill:#f1efe8;fill-opacity:1;stroke:none;stroke-width:6;stroke-dasharray:none;stroke-opacity:1"
         d="M 801.50586,-157.68555 A 344.71454,344.71454 0 0 1 456.79102,-502.39844 344.71454,344.71454 0 0 1 562.33984,-750.16797 c 104.97731,25.14724 184.98495,137.06999 176.375,185.94141 a 88.120728,88.120728 0 0 0 -25.33007,61.82812 88.120728,88.120728 0 0 0 6.39843,32.96289 c 15.61159,39.98804 123.14004,226.68151 320.5313,215.1211 a 344.71454,344.71454 0 0 1 -238.80864,96.6289 z m 238.93944,-96.74609 C 935.26631,-279.83443 855.24569,-392.25475 864.51172,-440.79297 a 88.120728,88.120728 0 0 0 25.11523,-61.60547 88.120728,88.120728 0 0 0 -6.27734,-32.66601 88.120728,88.120728 0 0 0 -5.07031,-10.57813 C 852.87986,-599.08386 747.73126,-761.3292 562.35742,-750.18359 a 344.71454,344.71454 0 0 1 239.14844,-96.92969 344.71454,344.71454 0 0 1 344.71484,344.71484 344.71454,344.71454 0 0 1 -105.7754,247.9668 z"
         transform="scale(1,-1)" />
      <circle
         style="fill:#f59c29;fill-opacity:1;stroke:none;stroke-width:5.6215;stroke-dasharray:none;stroke-opacity:1"
         id="path6-0-6-1"
         cx="801.50586"
         cy="502.39941"
         r="93.412209" />
      <path
         style="opacity:0.723724;fill:#7a8ba8;fill-opacity:1;stroke:none;stroke-width:2;stroke-dasharray:none;stroke-opacity:1"
         d="M 731.97981,448.06467 864.51247,440.7926"
         id="path14-1-5" />
    </g>
  </g>
</svg>
