<?xml version="1.0" encoding="UTF-8" standalone="no"?>
<svg
   version="1.1"
   width="222.9729"
   height="214.2912"
   viewBox="0 0 222.9729 214.2912"
   overflow="visible"
   xmlns="http://www.w3.org/2000/svg">

  <!-- Instance 4 — farthest, faintest -->
  <g transform="translate(-120,90) rotate(105, 111.49, 107.15)">
    <g transform="translate(-1214.49,-335.00983)">
      <g transform="matrix(0.32193689,0,0,0.30940281,1067.9421,286.71165)">
        <path
           style="fill:none;stroke:#F1EFE8;stroke-width:0.8;stroke-opacity:0.05"
           d="M 801.50586,-157.68555 A 344.71454,344.71454 0 0 1 456.79102,-502.39844 344.71454,344.71454 0 0 1 562.33984,-750.16797 c 104.97731,25.14724 184.98495,137.06999 176.375,185.94141 a 88.120728,88.120728 0 0 0 -25.33007,61.82812 88.120728,88.120728 0 0 0 6.39843,32.96289 c 15.61159,39.98804 123.14004,226.68151 320.5313,215.1211 a 344.71454,344.71454 0 0 1 -238.80864,96.6289 z m 238.93944,-96.74609 C 935.26631,-279.83443 855.24569,-392.25475 864.51172,-440.79297 a 88.120728,88.120728 0 0 0 25.11523,-61.60547 88.120728,88.120728 0 0 0 -6.27734,-32.66601 88.120728,88.120728 0 0 0 -5.07031,-10.57813 C 852.87986,-599.08386 747.73126,-761.3292 562.35742,-750.18359 a 344.71454,344.71454 0 0 1 239.14844,-96.92969 344.71454,344.71454 0 0 1 344.71484,344.71484 344.71454,344.71454 0 0 1 -105.7754,247.9668 z"
           transform="scale(1,-1)" />
      </g>
    </g>
  </g>

  <!-- Instance 3 -->
  <g transform="translate(-80,60) rotate(70, 111.49, 107.15)">
    <g transform="translate(-1214.49,-335.00983)">
      <g transform="matrix(0.32193689,0,0,0.30940281,1067.9421,286.71165)">
        <path
           style="fill:none;stroke:#F1EFE8;stroke-width:1;stroke-opacity:0.09"
           d="M 801.50586,-157.68555 A 344.71454,344.71454 0 0 1 456.79102,-502.39844 344.71454,344.71454 0 0 1 562.33984,-750.16797 c 104.97731,25.14724 184.98495,137.06999 176.375,185.94141 a 88.120728,88.120728 0 0 0 -25.33007,61.82812 88.120728,88.120728 0 0 0 6.39843,32.96289 c 15.61159,39.98804 123.14004,226.68151 320.5313,215.1211 a 344.71454,344.71454 0 0 1 -238.80864,96.6289 z m 238.93944,-96.74609 C 935.26631,-279.83443 855.24569,-392.25475 864.51172,-440.79297 a 88.120728,88.120728 0 0 0 25.11523,-61.60547 88.120728,88.120728 0 0 0 -6.27734,-32.66601 88.120728,88.120728 0 0 0 -5.07031,-10.57813 C 852.87986,-599.08386 747.73126,-761.3292 562.35742,-750.18359 a 344.71454,344.71454 0 0 1 239.14844,-96.92969 344.71454,344.71454 0 0 1 344.71484,344.71484 344.71454,344.71454 0 0 1 -105.7754,247.9668 z"
           transform="scale(1,-1)" />
      </g>
    </g>
  </g>

  <!-- Instance 2 -->
  <g transform="translate(-40,30) rotate(35, 111.49, 107.15)">
    <g transform="translate(-1214.49,-335.00983)">
      <g transform="matrix(0.32193689,0,0,0.30940281,1067.9421,286.71165)">
        <path
           style="fill:none;stroke:#F1EFE8;stroke-width:1.2;stroke-opacity:0.14"
           d="M 801.50586,-157.68555 A 344.71454,344.71454 0 0 1 456.79102,-502.39844 344.71454,344.71454 0 0 1 562.33984,-750.16797 c 104.97731,25.14724 184.98495,137.06999 176.375,185.94141 a 88.120728,88.120728 0 0 0 -25.33007,61.82812 88.120728,88.120728 0 0 0 6.39843,32.96289 c 15.61159,39.98804 123.14004,226.68151 320.5313,215.1211 a 344.71454,344.71454 0 0 1 -238.80864,96.6289 z m 238.93944,-96.74609 C 935.26631,-279.83443 855.24569,-392.25475 864.51172,-440.79297 a 88.120728,88.120728 0 0 0 25.11523,-61.60547 88.120728,88.120728 0 0 0 -6.27734,-32.66601 88.120728,88.120728 0 0 0 -5.07031,-10.57813 C 852.87986,-599.08386 747.73126,-761.3292 562.35742,-750.18359 a 344.71454,344.71454 0 0 1 239.14844,-96.92969 344.71454,344.71454 0 0 1 344.71484,344.71484 344.71454,344.71454 0 0 1 -105.7754,247.9668 z"
           transform="scale(1,-1)" />
      </g>
    </g>
  </g>

  <!-- Instance 1 — base position, sharpest -->
  <g>
    <g transform="translate(-1214.49,-335.00983)">
      <g transform="matrix(0.32193689,0,0,0.30940281,1067.9421,286.71165)">
        <path
           style="fill:none;stroke:#F1EFE8;stroke-width:1.5;stroke-opacity:0.2"
           d="M 801.50586,-157.68555 A 344.71454,344.71454 0 0 1 456.79102,-502.39844 344.71454,344.71454 0 0 1 562.33984,-750.16797 c 104.97731,25.14724 184.98495,137.06999 176.375,185.94141 a 88.120728,88.120728 0 0 0 -25.33007,61.82812 88.120728,88.120728 0 0 0 6.39843,32.96289 c 15.61159,39.98804 123.14004,226.68151 320.5313,215.1211 a 344.71454,344.71454 0 0 1 -238.80864,96.6289 z m 238.93944,-96.74609 C 935.26631,-279.83443 855.24569,-392.25475 864.51172,-440.79297 a 88.120728,88.120728 0 0 0 25.11523,-61.60547 88.120728,88.120728 0 0 0 -6.27734,-32.66601 88.120728,88.120728 0 0 0 -5.07031,-10.57813 C 852.87986,-599.08386 747.73126,-761.3292 562.35742,-750.18359 a 344.71454,344.71454 0 0 1 239.14844,-96.92969 344.71454,344.71454 0 0 1 344.71484,344.71484 344.71454,344.71454 0 0 1 -105.7754,247.9668 z"
           transform="scale(1,-1)" />
      </g>
    </g>
  </g>

</svg>
