<?xml version="1.0" encoding="UTF-8" standalone="no"?>
<!-- Created with Inkscape (http://www.inkscape.org/) -->

<svg
   version="1.1"
   id="svg1"
   width="221.95282"
   height="213.31085"
   viewBox="0 0 221.95282 213.31085"
   xmlns="http://www.w3.org/2000/svg"
   xmlns:svg="http://www.w3.org/2000/svg">
  <defs
     id="defs1" />
  <g
     id="layer1"
     style="display:inline"
     transform="translate(-338.47321,-694.50001)">
    <rect
       style="display:none;opacity:1;fill:#1a2b45;fill-opacity:1;stroke:none;stroke-width:0;stroke-dasharray:none;stroke-opacity:1"
       id="rect15"
       width="1019.5"
       height="394.5"
       x="267"
       y="613.5"
       rx="5"
       ry="5" />
  </g>
  <g
     id="layer6"
     transform="translate(-338.47321,-694.50001)">
    <g
       id="g15-1-7"
       transform="matrix(0.32193689,0,0,0.30940281,191.41531,645.71165)"
       style="fill:#7a8ba8;fill-opacity:1">
      <path
         id="path5-0-1"
         style="fill:#ffffff;fill-opacity:1;stroke:none;stroke-width:6;stroke-dasharray:none;stroke-opacity:1"
         d="M 801.50586,-157.68555 A 344.71454,344.71454 0 0 1 456.79102,-502.39844 344.71454,344.71454 0 0 1 562.33984,-750.16797 c 104.97731,25.14724 184.98495,137.06999 176.375,185.94141 a 88.120728,88.120728 0 0 0 -25.33007,61.82812 88.120728,88.120728 0 0 0 6.39843,32.96289 c 15.61159,39.98804 123.14004,226.68151 320.5313,215.1211 a 344.71454,344.71454 0 0 1 -238.80864,96.6289 z m 238.93944,-96.74609 C 935.26631,-279.83443 855.24569,-392.25475 864.51172,-440.79297 a 88.120728,88.120728 0 0 0 25.11523,-61.60547 88.120728,88.120728 0 0 0 -6.27734,-32.66601 88.120728,88.120728 0 0 0 -5.07031,-10.57813 C 852.87986,-599.08386 747.73126,-761.3292 562.35742,-750.18359 a 344.71454,344.71454 0 0 1 239.14844,-96.92969 344.71454,344.71454 0 0 1 344.71484,344.71484 344.71454,344.71454 0 0 1 -105.7754,247.9668 z"
         transform="scale(1,-1)" />
      <circle
         style="fill:#f59c29;fill-opacity:1;stroke:none;stroke-width:5.6215;stroke-dasharray:none;stroke-opacity:1"
         id="path6-0-6-1"
         cx="801.50586"
         cy="502.39941"
         r="93.412209" />
      <path
         style="opacity:0.723724;fill:#7a8ba8;fill-opacity:1;stroke:none;stroke-width:2;stroke-dasharray:none;stroke-opacity:1"
         d="M 731.97981,448.06467 864.51247,440.7926"
         id="path14-1-5" />
    </g>
  </g>
</svg>
